<svg width="20" height="20" viewBox="0 0 20 20" fill="none" xmlns="http://www.w3.org/2000/svg">
<g clip-path="url(#clip0_170_4)">
<circle cx="10" cy="9.99997" r="9.09091" fill="#115BC6"/>
<path d="M12.2121 13.7952H12.7121V13.2952V11.3989L12.8232 11.2739V13.6077C12.8232 13.9064 12.62 14.0454 12.4899 14.0454H6.3788C6.2487 14.0454 6.04547 13.9064 6.04547 13.6077V6.73138C6.04547 6.43276 6.2487 6.2937 6.3788 6.2937H10.7308L10.5084 6.54395H6.65658H6.15658V7.04395V13.2952V13.7952H6.65658H12.2121ZM10.0606 11.9941L8.8374 12.1468L8.98544 10.646L12.4153 6.78666L13.5519 8.06563L10.0606 11.9941ZM14.1266 5.10026L14.9738 6.05357C15.0687 6.16033 15.0703 6.35791 14.9731 6.46844C14.973 6.46857 14.9729 6.4687 14.9727 6.46883L14.6132 6.87341L13.4765 5.59444L13.9147 5.10147C13.9148 5.10134 13.9149 5.10121 13.915 5.10108C13.9558 5.05568 13.9951 5.04541 14.0218 5.04541C14.0485 5.04541 14.0869 5.05559 14.1266 5.10026Z" fill="white" stroke="white"/>
</g>
<defs>
<clipPath id="clip0_170_4">
<rect width="20" height="20" fill="white"/>
</clipPath>
</defs>
</svg>
